<mxfile host="app.diagrams.net" modified="2022-12-07T03:18:04.936Z" agent="5.0 (Windows NT 10.0; Win64; x64) AppleWebKit/537.36 (KHTML, like Gecko) Chrome/95.0.4638.54 Safari/537.36" version="20.6.0" etag="b2Wt8cmp_Rt3djuks1PD" type="github">
  <diagram id="MlP7cMFtud6X161XVxnp" name="Page-1">
    <mxGraphModel dx="2272" dy="762" grid="1" gridSize="10" guides="1" tooltips="1" connect="1" arrows="1" fold="1" page="1" pageScale="1" pageWidth="850" pageHeight="1100" math="0" shadow="0">
      <root>
        <mxCell id="0" />
        <mxCell id="1" parent="0" />
        <mxCell id="fQdo5IsBhYpfZnpQ1-Uw-1" value="Customer (Seller)" style="shape=umlActor;verticalLabelPosition=bottom;verticalAlign=top;html=1;outlineConnect=0;" vertex="1" parent="1">
          <mxGeometry x="345" y="40" width="30" height="60" as="geometry" />
        </mxCell>
        <mxCell id="fQdo5IsBhYpfZnpQ1-Uw-3" value="ICAP UI" style="rounded=0;whiteSpace=wrap;html=1;" vertex="1" parent="1">
          <mxGeometry x="240" y="200" width="240" height="80" as="geometry" />
        </mxCell>
        <mxCell id="fQdo5IsBhYpfZnpQ1-Uw-6" value="" style="endArrow=classic;html=1;rounded=0;entryX=0.75;entryY=0;entryDx=0;entryDy=0;" edge="1" parent="1" target="fQdo5IsBhYpfZnpQ1-Uw-3">
          <mxGeometry width="50" height="50" relative="1" as="geometry">
            <mxPoint x="360" y="120" as="sourcePoint" />
            <mxPoint x="450" y="210" as="targetPoint" />
          </mxGeometry>
        </mxCell>
        <mxCell id="fQdo5IsBhYpfZnpQ1-Uw-7" value="1. Create Transaction" style="text;html=1;align=center;verticalAlign=middle;resizable=0;points=[];autosize=1;strokeColor=none;fillColor=none;" vertex="1" parent="1">
          <mxGeometry x="355" y="135" width="140" height="30" as="geometry" />
        </mxCell>
        <mxCell id="fQdo5IsBhYpfZnpQ1-Uw-8" value="CD Trading&lt;br&gt;" style="rounded=0;whiteSpace=wrap;html=1;" vertex="1" parent="1">
          <mxGeometry x="240" y="400" width="240" height="80" as="geometry" />
        </mxCell>
        <mxCell id="fQdo5IsBhYpfZnpQ1-Uw-9" value="" style="endArrow=classic;html=1;rounded=0;exitX=0.75;exitY=1;exitDx=0;exitDy=0;entryX=0.75;entryY=0;entryDx=0;entryDy=0;" edge="1" parent="1" source="fQdo5IsBhYpfZnpQ1-Uw-3" target="fQdo5IsBhYpfZnpQ1-Uw-8">
          <mxGeometry width="50" height="50" relative="1" as="geometry">
            <mxPoint x="390" y="130" as="sourcePoint" />
            <mxPoint x="389" y="210" as="targetPoint" />
          </mxGeometry>
        </mxCell>
        <mxCell id="fQdo5IsBhYpfZnpQ1-Uw-10" value="1.1 Create Transaction:&lt;br&gt;- Pick &amp;amp; Hold CD&lt;br&gt;- Create Transaction" style="text;html=1;align=left;verticalAlign=middle;resizable=0;points=[];autosize=1;strokeColor=none;fillColor=none;" vertex="1" parent="1">
          <mxGeometry x="425" y="296" width="150" height="60" as="geometry" />
        </mxCell>
        <mxCell id="fQdo5IsBhYpfZnpQ1-Uw-11" value="" style="endArrow=classic;html=1;rounded=0;entryX=0.25;entryY=0;entryDx=0;entryDy=0;" edge="1" parent="1" target="fQdo5IsBhYpfZnpQ1-Uw-3">
          <mxGeometry width="50" height="50" relative="1" as="geometry">
            <mxPoint x="360" y="120" as="sourcePoint" />
            <mxPoint x="390" y="210" as="targetPoint" />
          </mxGeometry>
        </mxCell>
        <mxCell id="fQdo5IsBhYpfZnpQ1-Uw-12" value="2. Select option sell and submit&lt;br&gt;for transaction" style="text;html=1;align=center;verticalAlign=middle;resizable=0;points=[];autosize=1;strokeColor=none;fillColor=none;" vertex="1" parent="1">
          <mxGeometry x="145" y="130" width="190" height="40" as="geometry" />
        </mxCell>
        <mxCell id="fQdo5IsBhYpfZnpQ1-Uw-13" value="" style="endArrow=classic;html=1;rounded=0;entryX=0.25;entryY=0;entryDx=0;entryDy=0;exitX=0.25;exitY=1;exitDx=0;exitDy=0;" edge="1" parent="1" source="fQdo5IsBhYpfZnpQ1-Uw-3" target="fQdo5IsBhYpfZnpQ1-Uw-8">
          <mxGeometry width="50" height="50" relative="1" as="geometry">
            <mxPoint x="330" y="280" as="sourcePoint" />
            <mxPoint x="310" y="400" as="targetPoint" />
          </mxGeometry>
        </mxCell>
        <mxCell id="fQdo5IsBhYpfZnpQ1-Uw-14" value="2.1 Confirm Sell CD&lt;br&gt;" style="text;html=1;align=left;verticalAlign=middle;resizable=0;points=[];autosize=1;strokeColor=none;fillColor=none;" vertex="1" parent="1">
          <mxGeometry x="175" y="300" width="130" height="30" as="geometry" />
        </mxCell>
        <mxCell id="fQdo5IsBhYpfZnpQ1-Uw-16" value="Fund Pricing" style="rounded=0;whiteSpace=wrap;html=1;" vertex="1" parent="1">
          <mxGeometry x="-160" y="400" width="240" height="80" as="geometry" />
        </mxCell>
        <mxCell id="fQdo5IsBhYpfZnpQ1-Uw-18" value="" style="endArrow=classic;html=1;rounded=0;entryX=1;entryY=0.5;entryDx=0;entryDy=0;" edge="1" parent="1" source="fQdo5IsBhYpfZnpQ1-Uw-8" target="fQdo5IsBhYpfZnpQ1-Uw-16">
          <mxGeometry width="50" height="50" relative="1" as="geometry">
            <mxPoint x="430" y="290" as="sourcePoint" />
            <mxPoint x="430" y="410" as="targetPoint" />
          </mxGeometry>
        </mxCell>
        <mxCell id="fQdo5IsBhYpfZnpQ1-Uw-19" value="2.2 Get pricing of CD" style="text;html=1;align=center;verticalAlign=middle;resizable=0;points=[];autosize=1;strokeColor=none;fillColor=none;" vertex="1" parent="1">
          <mxGeometry x="90" y="410" width="140" height="30" as="geometry" />
        </mxCell>
        <mxCell id="fQdo5IsBhYpfZnpQ1-Uw-21" value="Bond Trading Service" style="rounded=0;whiteSpace=wrap;html=1;" vertex="1" parent="1">
          <mxGeometry x="600" y="720" width="240" height="80" as="geometry" />
        </mxCell>
        <mxCell id="fQdo5IsBhYpfZnpQ1-Uw-22" value="" style="endArrow=classic;html=1;rounded=0;exitX=0.5;exitY=1;exitDx=0;exitDy=0;entryX=0.5;entryY=0;entryDx=0;entryDy=0;" edge="1" parent="1" source="fQdo5IsBhYpfZnpQ1-Uw-8" target="fQdo5IsBhYpfZnpQ1-Uw-30">
          <mxGeometry width="50" height="50" relative="1" as="geometry">
            <mxPoint x="430" y="290" as="sourcePoint" />
            <mxPoint x="460" y="630" as="targetPoint" />
          </mxGeometry>
        </mxCell>
        <mxCell id="fQdo5IsBhYpfZnpQ1-Uw-23" value="" style="endArrow=classic;html=1;rounded=0;entryX=0.5;entryY=0;entryDx=0;entryDy=0;" edge="1" parent="1" target="fQdo5IsBhYpfZnpQ1-Uw-21">
          <mxGeometry width="50" height="50" relative="1" as="geometry">
            <mxPoint x="360" y="480" as="sourcePoint" />
            <mxPoint x="650" y="330" as="targetPoint" />
          </mxGeometry>
        </mxCell>
        <mxCell id="fQdo5IsBhYpfZnpQ1-Uw-25" value="2.3 Get Last Trasfer Date of CD" style="text;html=1;align=center;verticalAlign=middle;resizable=0;points=[];autosize=1;strokeColor=none;fillColor=none;rotation=30;" vertex="1" parent="1">
          <mxGeometry x="495" y="595" width="190" height="30" as="geometry" />
        </mxCell>
        <mxCell id="fQdo5IsBhYpfZnpQ1-Uw-30" value="Backbase ICAP" style="rounded=0;whiteSpace=wrap;html=1;" vertex="1" parent="1">
          <mxGeometry x="240" y="720" width="240" height="80" as="geometry" />
        </mxCell>
        <mxCell id="fQdo5IsBhYpfZnpQ1-Uw-34" value="2.3 Get Last Trasfer Date of CD" style="text;html=1;align=center;verticalAlign=middle;resizable=0;points=[];autosize=1;strokeColor=none;fillColor=none;rotation=-90;" vertex="1" parent="1">
          <mxGeometry x="250" y="599" width="190" height="30" as="geometry" />
        </mxCell>
        <mxCell id="fQdo5IsBhYpfZnpQ1-Uw-35" value="" style="endArrow=classic;html=1;rounded=0;exitX=1;exitY=0.5;exitDx=0;exitDy=0;entryX=0.5;entryY=1;entryDx=0;entryDy=0;" edge="1" parent="1" source="fQdo5IsBhYpfZnpQ1-Uw-8" target="fQdo5IsBhYpfZnpQ1-Uw-30">
          <mxGeometry width="50" height="50" relative="1" as="geometry">
            <mxPoint x="370" y="490" as="sourcePoint" />
            <mxPoint x="310" y="840" as="targetPoint" />
            <Array as="points">
              <mxPoint x="860" y="440" />
              <mxPoint x="860" y="840" />
              <mxPoint x="360" y="840" />
            </Array>
          </mxGeometry>
        </mxCell>
        <mxCell id="fQdo5IsBhYpfZnpQ1-Uw-36" value="2.4 Confirm Sell to Backbase ICAP: Transfer money &amp;amp; CD" style="text;html=1;align=center;verticalAlign=middle;resizable=0;points=[];autosize=1;strokeColor=none;fillColor=none;" vertex="1" parent="1">
          <mxGeometry x="480" y="410" width="330" height="30" as="geometry" />
        </mxCell>
        <mxCell id="fQdo5IsBhYpfZnpQ1-Uw-37" value="" style="endArrow=classic;html=1;rounded=0;entryX=-0.008;entryY=0.875;entryDx=0;entryDy=0;entryPerimeter=0;" edge="1" parent="1" source="fQdo5IsBhYpfZnpQ1-Uw-30" target="fQdo5IsBhYpfZnpQ1-Uw-8">
          <mxGeometry width="50" height="50" relative="1" as="geometry">
            <mxPoint x="200" y="790" as="sourcePoint" />
            <mxPoint x="200" y="450" as="targetPoint" />
            <Array as="points">
              <mxPoint x="200" y="760" />
              <mxPoint x="200" y="470" />
            </Array>
          </mxGeometry>
        </mxCell>
        <mxCell id="fQdo5IsBhYpfZnpQ1-Uw-38" value="2.5 Backbase Return Transfer money result&lt;br&gt;" style="text;html=1;align=center;verticalAlign=middle;resizable=0;points=[];autosize=1;strokeColor=none;fillColor=none;rotation=-90;" vertex="1" parent="1">
          <mxGeometry x="55" y="610" width="250" height="30" as="geometry" />
        </mxCell>
        <mxCell id="fQdo5IsBhYpfZnpQ1-Uw-40" value="" style="endArrow=classic;html=1;rounded=0;exitX=0;exitY=0.75;exitDx=0;exitDy=0;entryX=0;entryY=0.75;entryDx=0;entryDy=0;" edge="1" parent="1" source="fQdo5IsBhYpfZnpQ1-Uw-30" target="fQdo5IsBhYpfZnpQ1-Uw-8">
          <mxGeometry width="50" height="50" relative="1" as="geometry">
            <mxPoint x="310" y="290" as="sourcePoint" />
            <mxPoint x="120" y="450" as="targetPoint" />
            <Array as="points">
              <mxPoint x="120" y="780" />
              <mxPoint x="120" y="460" />
            </Array>
          </mxGeometry>
        </mxCell>
        <mxCell id="fQdo5IsBhYpfZnpQ1-Uw-41" value="2.6 Backbase Return Transaction Result" style="text;html=1;align=center;verticalAlign=middle;resizable=0;points=[];autosize=1;strokeColor=none;fillColor=none;rotation=-90;" vertex="1" parent="1">
          <mxGeometry x="-15" y="599" width="240" height="30" as="geometry" />
        </mxCell>
      </root>
    </mxGraphModel>
  </diagram>
</mxfile>
